<svg xmlns="http://www.w3.org/2000/svg" width="512" height="512" viewBox="0 0 128 128"><path d="M109.484 74.02L83.76 56.519l1.625-10.876a39.281 39.281 0 00-8.239-30.367L65.363.649a1.811 1.811 0 00-2.726 0L50.853 15.276a39.285 39.285 0 00-8.238 30.367l1.625 10.876L18.516 74.02a1.751 1.751 0 00-.766 1.447v14.826a1.75 1.75 0 001.75 1.75h29.807v7.749a1.749 1.749 0 001.75 1.75h3v1.767a38.08 38.08 0 008.583 24.046 1.75 1.75 0 002.709 0 38.074 38.074 0 008.583-24.046v-1.767h3.006a1.749 1.749 0 001.75-1.75v-7.749H108.5a1.75 1.75 0 001.75-1.75V75.467a1.751 1.751 0 00-.766-1.447zM97.622 88.543H78.974l2.714-18.16 15.934 10.84zM53.579 17.472L64 4.537l10.421 12.935a35.769 35.769 0 017.5 27.653l-6.486 43.418h-22.87l-4.7-31.455-1.788-11.963a35.769 35.769 0 017.502-27.653zm-4.554 71.071H30.378v-7.32l15.934-10.84zM21.25 76.393l23.565-16.031.923 6.179-18.094 12.31a1.748 1.748 0 00-.766 1.446v8.246H21.25zm49.187 26.916A34.582 34.582 0 0164 123.369a34.576 34.576 0 01-6.438-20.06v-1.767h4.688V109a1.75 1.75 0 003.5 0v-7.458h4.687zm4.756-5.267H52.807v-6h22.386zm31.557-9.5h-5.628V80.3a1.748 1.748 0 00-.766-1.446L82.262 66.541l.923-6.18 23.565 16.032z"/><path d="M64 48.75c5.479 0 9.937-6 9.937-13.375S69.479 22 64 22s-9.938 6-9.938 13.375S58.52 48.75 64 48.75zm0-23.25c3.489 0 6.437 4.522 6.437 9.875S67.489 45.25 64 45.25s-6.438-4.522-6.438-9.875S60.511 25.5 64 25.5z"/></svg>