<svg xmlns="http://www.w3.org/2000/svg" width="303.92" height="303.92" viewBox="0 0 303.92 303.92"><path d="M4.922 105.704l143.857 61.572c1.015.443 2.099.654 3.185.654s2.165-.222 3.185-.654l143.854-61.572a8.103 8.103 0 004.914-7.615 8.093 8.093 0 00-5.221-7.403L154.838 35.973a8.062 8.062 0 00-5.759 0L5.226 90.685a8.108 8.108 0 00-5.224 7.403 8.107 8.107 0 004.92 7.616zm147.037-53.495l122.233 46.488-122.233 52.32L29.724 98.698l122.235-46.489z"/><path d="M4.922 140.743l147.037 62.936 147.034-62.936a8.097 8.097 0 004.261-10.634c-1.756-4.103-6.502-6.03-10.631-4.261L151.959 186.06 11.29 125.848c-4.116-1.764-8.873.153-10.634 4.261-1.761 4.116.151 8.873 4.266 10.634z"/><path d="M4.922 173.14l147.037 62.938 147.034-62.938a8.093 8.093 0 004.261-10.631c-1.756-4.103-6.502-6.033-10.631-4.261L151.959 218.46 11.29 158.249c-4.116-1.762-8.873.152-10.634 4.261-1.761 4.113.151 8.869 4.266 10.63z"/><path d="M4.922 205.541l147.037 62.938 147.034-62.938a8.094 8.094 0 004.261-10.632 8.099 8.099 0 00-10.631-4.261L151.959 250.86 11.29 190.648c-4.116-1.761-8.873.153-10.634 4.261-1.761 4.113.151 8.87 4.266 10.632z"/></svg>